<svg  viewBox="0 0 32 40" version="1.1" xml:space="preserve" style="" x="0px" y="0px" fill-rule="evenodd" clip-rule="evenodd" stroke-linejoin="round" stroke-miterlimit="2"><g transform="matrix(1,0,0,1,-111,-37)"><g transform="matrix(0.776052,0,0,0.776052,110.703,39.7106)"><g serif:id="line "><path d="M23.716,32.536L6.797,32.581C5.781,32.583 4.805,32.181 4.085,31.463C3.365,30.745 2.96,29.77 2.96,28.754L4.249,30.04L2.96,28.751C2.96,23.324 6.295,18.67 11.026,16.729C8.956,15.211 7.611,12.761 7.611,10C7.611,5.398 11.348,1.661 15.95,1.661C20.552,1.661 24.289,5.398 24.289,10C24.289,12.761 22.944,15.211 20.874,16.728C22.229,17.284 23.469,18.063 24.55,19.019C26.077,17.832 27.996,17.124 30.078,17.124C35.057,17.124 39.098,21.166 39.098,26.144C39.098,31.123 35.057,35.164 30.078,35.164C27.597,35.164 25.348,34.16 23.716,32.536ZM15.95,18.339C10.204,18.339 5.539,23.003 5.537,28.749L5.537,28.751C5.537,28.755 5.537,28.759 5.537,28.76C5.539,29.09 5.671,29.405 5.905,29.638C6.14,29.873 6.458,30.004 6.791,30.003L21.906,29.963C21.362,28.803 21.058,27.509 21.058,26.144C21.058,24.178 21.689,22.358 22.758,20.876C20.932,19.295 18.552,18.339 15.95,18.339ZM15.95,15.761C19.13,15.761 21.711,13.18 21.711,10C21.711,6.82 19.13,4.239 15.95,4.239C12.77,4.239 10.189,6.82 10.189,10C10.189,13.18 12.77,15.761 15.95,15.761ZM25.24,30.397C26.421,31.739 28.151,32.587 30.078,32.587C33.634,32.587 36.521,29.7 36.521,26.144C36.521,22.588 33.634,19.701 30.078,19.701C28.267,19.701 26.629,20.451 25.458,21.656C25.447,21.668 25.435,21.679 25.424,21.691C24.316,22.849 23.636,24.418 23.636,26.144C23.636,27.772 24.24,29.259 25.237,30.394C25.238,30.395 25.239,30.396 25.24,30.397ZM25.742,26.946C25.236,26.446 25.231,25.63 25.73,25.124C26.23,24.618 27.046,24.612 27.553,25.112C27.553,25.112 29.297,26.833 29.297,26.833L32.531,23.057C32.993,22.517 33.807,22.454 34.348,22.917C34.888,23.379 34.951,24.194 34.488,24.734L30.355,29.56C30.122,29.831 29.787,29.994 29.43,30.009C29.073,30.024 28.725,29.89 28.471,29.639L25.742,26.946Z"/></g></g></g><text x="0" y="47" fill="#000000" font-size="5px" font-weight="bold" font-family="'Helvetica Neue', Helvetica, Arial-Unicode, Arial, Sans-serif">Created by icelloid</text><text x="0" y="52" fill="#000000" font-size="5px" font-weight="bold" font-family="'Helvetica Neue', Helvetica, Arial-Unicode, Arial, Sans-serif">from the Noun Project</text></svg>