<svg xmlns="http://www.w3.org/2000/svg" viewBox="0 0 24 30" x="0px" y="0px"><path d="m18.75,16c0,.414-.336.75-.75.75h-1.25v1.25c0,.414-.336.75-.75.75s-.75-.336-.75-.75v-1.25h-1.25c-.414,0-.75-.336-.75-.75s.336-.75.75-.75h1.25v-1.25c0-.414.336-.75.75-.75s.75.336.75.75v1.25h1.25c.414,0,.75.336.75.75Zm3,0c0,3.171-2.579,5.75-5.75,5.75H5c-1.517,0-2.75-1.233-2.75-2.75,0-3.626,2.507-6.67,5.876-7.511-1.138-.964-1.876-2.384-1.876-3.989,0-2.895,2.355-5.25,5.25-5.25s5.25,2.355,5.25,5.25c0,1.012-.291,1.954-.791,2.752.014,0,.027-.002.041-.002,3.171,0,5.75,2.58,5.75,5.75Zm-10.25-4.75c2.067,0,3.75-1.682,3.75-3.75s-1.683-3.75-3.75-3.75-3.75,1.682-3.75,3.75,1.683,3.75,3.75,3.75Zm.64,9c-1.158-1.053-1.89-2.565-1.89-4.25,0-1.206.375-2.325,1.011-3.25h-1.261c-3.446,0-6.25,2.804-6.25,6.25,0,.689.561,1.25,1.25,1.25h7.14Zm8.11-4.25c0-2.344-1.906-4.25-4.25-4.25s-4.25,1.906-4.25,4.25,1.906,4.25,4.25,4.25,4.25-1.906,4.25-4.25Z"/><text x="0" y="39" fill="#000000" font-size="5px" font-weight="bold" font-family="'Helvetica Neue', Helvetica, Arial-Unicode, Arial, Sans-serif">Created by Saepul Nahwan</text><text x="0" y="44" fill="#000000" font-size="5px" font-weight="bold" font-family="'Helvetica Neue', Helvetica, Arial-Unicode, Arial, Sans-serif">from the Noun Project</text></svg>